<svg width="14" height="22" viewBox="0 0 14 22" fill="none" xmlns="http://www.w3.org/2000/svg">
<path d="M1.58984 1.5L11.5898 10.5Z" fill="#000100"/>
<path fill-rule="evenodd" clip-rule="evenodd" d="M0.474915 0.496566C1.0291 -0.119199 1.97754 -0.169117 2.5933 0.385072L12.5933 9.38507C13.2091 9.93926 13.259 10.8877 12.7048 11.5035C12.1506 12.1192 11.2022 12.1691 10.5864 11.615L0.58641 2.61495C-0.0293555 2.06077 -0.0792731 1.11233 0.474915 0.496566Z" fill="#C5AC8E"/>
<path d="M1.58984 20.5L11.5898 11.5Z" fill="#000100"/>
<path fill-rule="evenodd" clip-rule="evenodd" d="M12.7048 10.4966C13.259 11.1123 13.2091 12.0608 12.5933 12.615L2.5933 21.615C1.97754 22.1691 1.0291 22.1192 0.474915 21.5035C-0.0792731 20.8877 -0.0293555 19.9393 0.58641 19.3851L10.5864 10.3851C11.2022 9.83088 12.1506 9.8808 12.7048 10.4966Z" fill="#C5AC8E"/>
</svg>
