<svg width="49" height="47" viewBox="0 0 49 47" fill="none" xmlns="http://www.w3.org/2000/svg">
<path d="M33.5739 31.7273L34.7126 30.595L32.0684 27.9358L30.9299 29.068L33.5739 31.7273ZM38.5366 30.1208L43.3129 32.7173L45.1039 29.4228L40.3276 26.8263L38.5366 30.1208ZM44.2324 37.8778L40.6809 41.409L43.3249 44.0683L46.8764 40.537L44.2324 37.8778ZM38.5169 42.546C34.8921 42.8838 25.5141 42.5828 15.3606 32.4868L12.7165 35.146C23.7966 46.1633 34.3424 46.7013 38.8649 46.2798L38.5169 42.546ZM15.3606 32.4868C5.68212 22.8633 4.0789 14.7692 3.87932 11.2577L0.135372 11.4704C0.386522 15.89 2.3717 24.86 12.7165 35.146L15.3606 32.4868ZM18.7989 17.0361L19.5159 16.3231L16.8719 13.6639L16.1548 14.3769L18.7989 17.0361ZM20.0866 7.23506L16.9342 3.02406L13.9323 5.27141L17.0846 9.48244L20.0866 7.23506ZM6.3317 2.10751L2.4077 6.00924L5.0518 8.66844L8.9758 4.76671L6.3317 2.10751ZM17.4769 15.7065C16.1548 14.3769 16.153 14.3786 16.1512 14.3804C16.1506 14.381 16.1488 14.3829 16.1476 14.3841C16.1452 14.3866 16.1427 14.3891 16.1401 14.3916C16.1351 14.3968 16.1298 14.4022 16.1244 14.4078C16.1136 14.419 16.1021 14.4312 16.0901 14.4443C16.066 14.4704 16.0395 14.5004 16.0111 14.5342C15.9545 14.6018 15.8902 14.6851 15.8227 14.7847C15.6874 14.9845 15.54 15.2485 15.4148 15.5806C15.1595 16.2583 15.0226 17.1515 15.1942 18.2577C15.5298 20.4209 17.0196 23.2783 20.8359 27.0728L23.4799 24.4135C19.9086 20.8625 19.0579 18.7015 18.8999 17.6828C18.8246 17.1979 18.9026 16.9593 18.9241 16.9028C18.9371 16.8679 18.9434 16.8643 18.9274 16.8882C18.9194 16.8998 18.9061 16.9181 18.8854 16.9427C18.8751 16.9551 18.8629 16.969 18.8486 16.9846C18.8414 16.9923 18.8339 17.0005 18.8254 17.0091C18.8214 17.0134 18.8171 17.0178 18.8126 17.0223C18.8104 17.0245 18.8081 17.0268 18.8059 17.0291C18.8049 17.0302 18.8031 17.032 18.8024 17.0326C18.8006 17.0343 18.7989 17.0361 17.4769 15.7065ZM20.8359 27.0728C24.6534 30.8685 27.5241 32.3458 29.6909 32.6783C30.7981 32.848 31.6909 32.7125 32.3681 32.4603C32.7001 32.3365 32.9646 32.1908 33.1646 32.0568C33.2646 31.9898 33.3481 31.926 33.4159 31.8698C33.4499 31.8418 33.4799 31.8155 33.5061 31.7915C33.5194 31.7795 33.5316 31.7683 33.5429 31.7575C33.5486 31.752 33.5539 31.7468 33.5591 31.7418C33.5616 31.7393 33.5641 31.7368 33.5666 31.7343C33.5679 31.733 33.5699 31.7313 33.5704 31.7308C33.5721 31.729 33.5739 31.7273 32.2519 30.3975C30.9299 29.068 30.9316 29.0663 30.9334 29.0645C30.9339 29.064 30.9356 29.0623 30.9369 29.061C30.9391 29.0588 30.9414 29.0565 30.9436 29.0543C30.9484 29.05 30.9526 29.0458 30.9569 29.0415C30.9656 29.0333 30.9739 29.0258 30.9816 29.0185C30.9971 29.0045 31.0111 28.9923 31.0236 28.9823C31.0481 28.9618 31.0664 28.9488 31.0776 28.941C31.1009 28.9255 31.0961 28.9325 31.0591 28.9463C30.9979 28.969 30.7526 29.0473 30.2596 28.9715C29.2264 28.8133 27.0501 27.9633 23.4799 24.4135L20.8359 27.0728ZM16.9342 3.02406C14.386 -0.379913 9.37502 -0.918538 6.3317 2.10751L8.9758 4.76671C10.305 3.44504 12.6657 3.57956 13.9323 5.27141L16.9342 3.02406ZM3.87932 11.2577C3.83015 10.3924 4.227 9.48854 5.0518 8.66844L2.4077 6.00924C1.0644 7.34491 0.00834686 9.23566 0.135372 11.4704L3.87932 11.2577ZM40.6809 41.409C39.9939 42.0923 39.2574 42.477 38.5169 42.546L38.8649 46.2798C40.7014 46.1085 42.2061 45.1808 43.3249 44.0683L40.6809 41.409ZM19.5159 16.3231C21.9771 13.8758 22.1601 10.0048 20.0866 7.23506L17.0846 9.48244C18.0934 10.8299 17.9434 12.5985 16.8719 13.6639L19.5159 16.3231ZM43.3129 32.7173C45.3574 33.8288 45.6759 36.4423 44.2324 37.8778L46.8764 40.537C50.2271 37.2053 49.1939 31.646 45.1039 29.4228L43.3129 32.7173ZM34.7126 30.595C35.6726 29.6405 37.2179 29.404 38.5366 30.1208L40.3276 26.8263C37.6186 25.3535 34.2566 25.7603 32.0684 27.9358L34.7126 30.595Z" fill="#1C274C"/>
</svg>
