<svg width="14" height="23" viewBox="0 0 14 23" fill="none" xmlns="http://www.w3.org/2000/svg">
<path d="M12 21L2 12Z" fill="#000100"/>
<path fill-rule="evenodd" clip-rule="evenodd" d="M13.1149 22.0034C12.5607 22.6192 11.6123 22.6691 10.9965 22.1149L0.99654 13.1149C0.380775 12.5607 0.330858 11.6123 0.885046 10.9965C1.43923 10.3808 2.38767 10.3309 3.00343 10.885L13.0034 19.885C13.6192 20.4392 13.6691 21.3877 13.1149 22.0034Z" fill="#C5AC8E"/>
<path d="M12 2L2 11Z" fill="#000100"/>
<path fill-rule="evenodd" clip-rule="evenodd" d="M0.885046 12.0034C0.330858 11.3877 0.380775 10.4392 0.99654 9.88505L10.9965 0.885046C11.6123 0.330858 12.5607 0.380775 13.1149 0.99654C13.6691 1.61231 13.6192 2.56074 13.0034 3.11493L3.00343 12.1149C2.38767 12.6691 1.43923 12.6192 0.885046 12.0034Z" fill="#C5AC8E"/>
</svg>
