<svg width="41" height="36" viewBox="0 0 41 36" fill="none" xmlns="http://www.w3.org/2000/svg">
<path fill-rule="evenodd" clip-rule="evenodd" d="M8.76218 21.538C8.84811 21.5667 8.93648 21.5874 9.02618 21.6C9.59202 22.9333 10.1547 24.268 10.7142 25.604C11.7202 28.008 12.7342 30.484 12.9562 31.196C13.2342 32.072 13.5262 32.668 13.8462 33.076C14.0122 33.284 14.2022 33.468 14.4262 33.608C14.5429 33.681 14.6677 33.7401 14.7982 33.784C15.4382 34.024 16.0222 33.924 16.3882 33.802C16.603 33.7287 16.8073 33.6279 16.9962 33.502L17.0062 33.498L22.6582 29.974L29.1882 34.978C29.2842 35.052 29.3882 35.114 29.5002 35.164C30.2842 35.504 31.0442 35.624 31.7602 35.528C32.4722 35.428 33.0382 35.13 33.4602 34.792C33.9447 34.4015 34.3311 33.9028 34.5882 33.336L34.6062 33.292L34.6122 33.276L34.6162 33.268V33.264L34.6182 33.262C34.6529 33.176 34.6797 33.087 34.6982 32.996L40.6582 2.94602C40.677 2.84983 40.6864 2.75203 40.6862 2.65402C40.6862 1.77402 40.3542 0.936019 39.5762 0.430019C38.9082 -0.00398073 38.1662 -0.023981 37.6962 0.012019C37.1922 0.052019 36.7242 0.176019 36.4102 0.276019C36.2344 0.331729 36.0609 0.394446 35.8902 0.464019L35.8682 0.474019L2.44018 13.586L2.43618 13.588C2.32307 13.6296 2.21166 13.6757 2.10218 13.726C1.8371 13.8452 1.58282 13.9871 1.34218 14.15C0.888176 14.46 -0.157824 15.312 0.0201758 16.72C0.160176 17.84 0.928176 18.53 1.39818 18.862C1.65418 19.044 1.89818 19.174 2.07818 19.26C2.15818 19.3 2.33018 19.368 2.40418 19.4L2.42418 19.406L8.76218 21.538ZM37.0382 3.23402H37.0342C37.017 3.24166 36.9996 3.249 36.9822 3.25602L3.51418 16.386C3.49696 16.393 3.47962 16.3996 3.46218 16.406L3.44218 16.412C3.38104 16.436 3.32098 16.4627 3.26218 16.492C3.31784 16.5239 3.37527 16.5526 3.43418 16.578L9.71817 18.694C9.83047 18.7319 9.93789 18.7829 10.0382 18.846L30.7922 6.69602L30.8122 6.68602C30.8928 6.63703 30.9755 6.59165 31.0602 6.55002C31.2042 6.47602 31.4342 6.36802 31.6942 6.28802C31.8742 6.23202 32.4082 6.07402 32.9842 6.26002C33.2897 6.35632 33.562 6.53659 33.7699 6.78026C33.9779 7.02393 34.1131 7.32116 34.1602 7.63802C34.2347 7.91552 34.2367 8.20749 34.1662 8.48602C34.0262 9.03602 33.6422 9.46402 33.2902 9.79202C32.9902 10.072 29.1002 13.824 25.2622 17.528L20.0362 22.568L19.1062 23.468L30.8502 32.472C31.0087 32.5385 31.1808 32.566 31.3522 32.552C31.4385 32.5403 31.5197 32.5042 31.5862 32.448C31.6673 32.3796 31.7368 32.2985 31.7922 32.208L31.7962 32.206L37.5762 3.06002C37.3941 3.10381 37.2156 3.16131 37.0422 3.23202L37.0382 3.23402ZM20.1162 28.022L17.7722 26.226L17.2042 29.836L20.1162 28.022ZM15.6222 22.662L17.9522 20.412L23.1782 15.368L25.1242 13.492L12.0842 21.126L12.1542 21.29C12.9766 23.2329 13.7899 25.1796 14.5942 27.13L15.1602 23.53C15.2114 23.1961 15.3743 22.8914 15.6222 22.662Z" fill="#6D6254"/>
</svg>
