<svg width="57" height="57" viewBox="0 0 57 57" fill="none" xmlns="http://www.w3.org/2000/svg">
<g clip-path="url(#clip0_326_1569)">
<g clip-path="url(#clip1_326_1569)">
<path d="M40.1699 0H16.1699C7.33337 0 0.169922 7.16344 0.169922 16V40C0.169922 48.8366 7.33337 56 16.1699 56H40.1699C49.0065 56 56.1699 48.8366 56.1699 40V16C56.1699 7.16344 49.0065 0 40.1699 0Z" fill="white"/>
<path d="M41.7655 20.6844V20.6594C41.753 20.3531 41.7405 20.0281 41.7343 19.6656C41.7093 17.9031 40.303 16.4406 38.5405 16.3406C34.8655 16.1406 32.0155 14.9406 29.5843 12.5656L29.5655 12.5469C28.7718 11.8219 27.578 11.8219 26.7843 12.5469L26.7593 12.5656C24.328 14.9406 21.4843 16.1406 17.803 16.3469C16.0405 16.4406 14.6343 17.9031 14.6093 19.6656C14.603 20.0281 14.5968 20.3531 14.578 20.6594V20.7156C14.5093 24.4656 14.4155 29.1344 15.978 33.3719C16.8343 35.7031 18.1405 37.7281 19.8468 39.3906C21.7905 41.2844 24.3343 42.7906 27.4093 43.8656C27.5093 43.9031 27.6155 43.9281 27.7218 43.9531C27.8718 43.9844 28.0218 43.9969 28.1718 43.9969C28.3218 43.9969 28.4718 43.9844 28.6218 43.9531C28.728 43.9344 28.8343 43.9031 28.9343 43.8656C32.0093 42.7906 34.553 41.2844 36.4905 39.3906C38.1968 37.7219 39.4968 35.6969 40.3593 33.3656C41.9218 29.1219 41.8343 24.4469 41.7655 20.6844ZM38.5968 32.7219C36.9468 37.1906 33.5843 40.2594 28.3155 42.0969C28.2968 42.1031 28.278 42.1094 28.253 42.1156C28.1968 42.1281 28.1405 42.1281 28.0905 42.1156C28.0718 42.1094 28.053 42.1031 28.0343 42.0969C22.7593 40.2594 19.3905 37.1906 17.7468 32.7219C16.3093 28.8156 16.3905 24.5281 16.4593 20.7469V20.7281C16.4718 20.4031 16.4843 20.0656 16.4905 19.6906C16.503 18.9094 17.128 18.2594 17.9093 18.2156C19.9905 18.0969 21.8218 17.6969 23.503 16.9844C25.1843 16.2719 26.6718 15.2719 28.0593 13.9219C28.128 13.8594 28.2218 13.8594 28.2905 13.9219C29.678 15.2719 31.1718 16.2719 32.8468 16.9844C34.528 17.6969 36.3593 18.0969 38.4405 18.2156C39.228 18.2594 39.8468 18.9094 39.8593 19.6906C39.8655 20.0656 39.8718 20.4094 39.8905 20.7281C39.9593 24.5219 40.0405 28.8094 38.5968 32.7219Z" fill="#C5AC8E"/>
<path d="M28.1703 20.0282C23.7703 20.0282 20.1953 23.6032 20.1953 28.0032C20.1953 32.4032 23.7703 35.9782 28.1703 35.9782C32.5703 35.9782 36.1453 32.4032 36.1453 28.0032C36.1453 23.6095 32.5703 20.0282 28.1703 20.0282ZM28.1703 34.1032C24.8078 34.1032 22.0703 31.3657 22.0703 28.0032C22.0703 24.6407 24.8078 21.9032 28.1703 21.9032C31.5328 21.9032 34.2703 24.6407 34.2703 28.0032C34.2703 31.3657 31.5328 34.1032 28.1703 34.1032Z" fill="#C5AC8E"/>
<path d="M30.4644 25.528L26.7582 29.2343L25.7519 28.228C25.3832 27.8593 24.7894 27.8593 24.4269 28.228C24.0582 28.5968 24.0582 29.1905 24.4269 29.553L26.0957 31.2218C26.2769 31.403 26.5207 31.4968 26.7582 31.4968C26.9957 31.4968 27.2394 31.403 27.4207 31.2218L31.7894 26.853C32.1582 26.4843 32.1582 25.8905 31.7894 25.528C31.4207 25.1593 30.8269 25.1593 30.4644 25.528Z" fill="#C5AC8E"/>
</g>
</g>
<defs>
<clipPath id="clip0_326_1569">
<rect width="57" height="57" fill="white"/>
</clipPath>
<clipPath id="clip1_326_1569">
<rect width="57" height="56" fill="white"/>
</clipPath>
</defs>
</svg>
