<svg width="57" height="56" viewBox="0 0 57 56" fill="none" xmlns="http://www.w3.org/2000/svg">
<g clip-path="url(#clip0_326_1592)">
<path d="M40.7617 0.000488281H16.7617C7.92516 0.000488281 0.761719 7.16393 0.761719 16.0005V40.0005C0.761719 48.837 7.92516 56.0005 16.7617 56.0005H40.7617C49.5983 56.0005 56.7617 48.837 56.7617 40.0005V16.0005C56.7617 7.16393 49.5983 0.000488281 40.7617 0.000488281Z" fill="white"/>
<g clip-path="url(#clip1_326_1592)">
<path d="M41.1951 34.4667L33.0418 29.2571H33.0343V26.5343H35.8126C36.2077 27.7365 37.3401 28.6072 38.6728 28.6072C40.3328 28.6072 41.6832 27.2568 41.6832 25.5968C41.6832 23.9368 40.3328 22.5863 38.6728 22.5863C37.3401 22.5863 36.2077 23.4571 35.8126 24.6593H33.0343V15.227C33.0342 13.6957 31.7885 12.4499 30.2572 12.4499C29.5137 12.4499 28.7895 12.755 28.27 13.287L25.9263 15.6876C24.2728 14.6457 22.0566 14.843 20.6177 16.282L19.0745 17.8252L25.1288 23.8796L26.6721 22.3363C28.116 20.8924 28.3098 18.6656 27.2555 17.0102L29.6116 14.5969C29.7803 14.424 30.0157 14.3249 30.2572 14.3249C30.7546 14.3249 31.1593 14.7296 31.1593 15.227V29.2571H24.5452L18.5097 23.2138C17.9493 22.6527 17.204 22.3434 16.4111 22.3429H16.4092C15.6169 22.3429 14.8719 22.6513 14.3114 23.2111C13.7502 23.7715 13.4409 24.5168 13.4404 25.3098C13.4399 26.1028 13.7482 26.8485 14.3086 27.4096L22.0836 35.1947H24.6697V38.789H23.5213L21.5029 42.5749H19.1072V44.4499H35.9822V42.5749H33.5864L31.568 38.789H30.4197V35.1946H31.3068L37.9983 39.47C38.4815 39.7787 39.0308 39.9381 39.5908 39.938C39.8051 39.938 40.021 39.9147 40.2353 39.8675C41.0097 39.6969 41.6713 39.2349 42.0983 38.5667C42.9797 37.1873 42.5745 35.348 41.1951 34.4667ZM38.6727 24.4613C39.2988 24.4613 39.8082 24.9707 39.8082 25.5968C39.8082 26.2229 39.2988 26.7322 38.6727 26.7322C38.0466 26.7322 37.5373 26.2229 37.5373 25.5968C37.5373 24.9707 38.0467 24.4613 38.6727 24.4613ZM25.3463 21.0105L25.1288 21.228L21.7261 17.8252L21.9436 17.6078C22.8817 16.6696 24.4081 16.6697 25.3463 17.6078C26.2843 18.5459 26.2843 20.0724 25.3463 21.0105ZM30.4427 40.664L31.4615 42.5749H23.6277L24.6465 40.664H24.6697H30.4197H30.4427ZM28.5447 38.789H26.5447V35.1946H28.5447V38.789ZM40.5183 37.5572C40.361 37.8033 40.1173 37.9736 39.832 38.0365C39.5467 38.0992 39.254 38.0473 39.0078 37.89L31.8547 33.3196H22.8609L15.6352 26.0846C15.2091 25.6578 15.2095 24.9639 15.6363 24.5378C16.063 24.1117 16.7569 24.112 17.1831 24.5388L23.7679 31.1321H32.4939L40.1855 36.0467C40.6937 36.3714 40.843 37.049 40.5183 37.5572Z" fill="#C5AC8E"/>
</g>
</g>
<defs>
<clipPath id="clip0_326_1592">
<rect width="57" height="56" fill="white"/>
</clipPath>
<clipPath id="clip1_326_1592">
<rect width="30" height="32" fill="white" transform="translate(13.4404 12.4499)"/>
</clipPath>
</defs>
</svg>
