<svg width="57" height="56" viewBox="0 0 57 56" fill="none" xmlns="http://www.w3.org/2000/svg">
<g clip-path="url(#clip0_326_1610)">
<g clip-path="url(#clip1_326_1610)">
<path d="M40.1396 0.300049H16.1396C7.30309 0.300049 0.139648 7.46349 0.139648 16.3V40.3C0.139648 49.1366 7.30309 56.3 16.1396 56.3H40.1396C48.9762 56.3 56.1396 49.1366 56.1396 40.3V16.3C56.1396 7.46349 48.9762 0.300049 40.1396 0.300049Z" fill="white"/>
<path d="M29.4573 22.3837C30.1667 23.0932 31.1802 23.4986 32.1938 23.4986C33.2073 23.4986 34.2208 23.0932 34.9302 22.3837C35.2343 22.0796 35.6397 21.8769 36.1465 21.8769C36.6532 21.8769 37.0586 22.0796 37.3627 22.3837C38.0721 23.0932 39.0856 23.4986 40.0992 23.4986C41.1127 23.4986 42.1262 23.0932 42.8356 22.3837C43.0383 22.181 43.1397 21.8769 43.1397 21.5729C43.1397 21.2688 43.0383 20.9648 42.8356 20.7621C42.4302 20.3567 41.7208 20.3567 41.214 20.7621C40.6059 21.3702 39.4911 21.3702 38.7816 20.7621C38.1735 20.0526 37.2613 19.6472 36.1465 19.6472C35.0316 19.6472 34.1194 20.0526 33.41 20.7621C32.8019 21.3702 31.687 21.3702 30.9775 20.7621C30.2681 20.0526 29.2546 19.6472 28.2411 19.6472C27.2275 19.6472 26.214 20.0526 25.5046 20.7621C24.7951 21.4715 23.7816 21.3702 23.0721 20.7621C21.5519 19.2418 19.0181 19.2418 17.4978 20.7621C16.7883 21.4715 15.7748 21.3702 15.0654 20.7621C14.66 20.3567 13.9505 20.3567 13.4438 20.7621C13.0383 21.1675 13.0383 21.8769 13.4438 22.3837C14.964 23.904 17.4978 23.904 19.0181 22.3837C19.6262 21.7756 20.7411 21.7756 21.4505 22.3837C22.9708 23.904 25.5046 23.904 27.0248 22.3837C27.6329 21.7756 28.7478 21.7756 29.4573 22.3837Z" fill="#C5AC8E"/>
<path d="M29.4573 29.0728C30.1667 29.7823 31.1802 30.1877 32.1938 30.1877C33.2073 30.1877 34.2208 29.7823 34.9302 29.0728C35.2343 28.7688 35.6397 28.5661 36.1465 28.5661C36.5519 28.5661 37.0586 28.7688 37.3627 29.0728C38.0721 29.7823 39.0856 30.1877 40.0992 30.1877C41.1127 30.1877 42.1262 29.7823 42.8356 29.0728C43.0383 28.8701 43.1397 28.5661 43.1397 28.262C43.1397 27.958 43.0383 27.6539 42.8356 27.4512C42.4302 27.0458 41.7208 27.0458 41.214 27.4512C40.6059 28.0593 39.4911 28.0593 38.7816 27.4512C38.0721 26.7418 37.0586 26.3364 36.0451 26.3364C35.0316 26.3364 34.0181 26.7418 33.3086 27.4512C32.7005 28.0593 31.5856 28.0593 30.8762 27.4512C30.1667 26.7418 29.1532 26.3364 28.1397 26.3364C27.1262 26.3364 26.1127 26.7418 25.4032 27.4512C24.6938 28.1607 23.6802 28.1607 22.9708 27.4512C22.3627 26.7418 21.3492 26.3364 20.3356 26.3364C19.3221 26.3364 18.3086 26.7418 17.4978 27.5526C16.7883 28.262 15.7748 28.262 15.0654 27.5526C14.66 27.1472 13.9505 27.1472 13.4438 27.5526C13.0383 27.958 13.0383 28.6674 13.4438 29.1742C14.3559 29.7823 15.2681 30.1877 16.3829 30.1877C17.4978 30.1877 18.41 29.7823 19.1194 29.0728C19.7275 28.4647 20.8424 28.4647 21.5519 29.0728C22.2613 29.7823 23.2748 30.1877 24.2883 30.1877C25.3019 30.1877 26.3154 29.7823 27.0248 29.0728C27.7343 28.4647 28.7478 28.4647 29.4573 29.0728Z" fill="#C5AC8E"/>
<path d="M29.4574 35.762C30.1668 36.4715 31.1804 36.8769 32.1939 36.8769C33.2074 36.8769 34.2209 36.4715 34.9304 35.762C35.2344 35.458 35.6398 35.2553 36.1466 35.2553C36.552 35.2553 37.0587 35.458 37.3628 35.762C38.0722 36.4715 39.0858 36.8769 40.0993 36.8769C41.1128 36.8769 42.1263 36.4715 42.8358 35.762C43.0385 35.5593 43.1398 35.2553 43.1398 34.9512C43.1398 34.6472 43.0385 34.3431 42.8358 34.1404C42.4304 33.735 41.7209 33.735 41.2141 34.1404C40.606 34.7485 39.4912 34.7485 38.7817 34.1404C38.0722 33.431 37.0587 33.0256 36.0452 33.0256C35.0317 33.0256 34.0182 33.431 33.3087 34.1404C33.0047 34.4445 32.5993 34.6472 32.0925 34.6472C31.6871 34.6472 31.1804 34.4445 30.8763 34.1404C30.1668 33.431 29.1533 33.0256 28.1398 33.0256C27.1263 33.0256 26.1128 33.431 25.4033 34.1404C24.7952 34.7485 23.6804 34.7485 22.9709 34.1404C22.3628 33.5323 21.3493 33.1269 20.3358 33.1269C19.3222 33.1269 18.3087 33.5323 17.5993 34.2418C16.9912 34.8499 15.8763 34.8499 15.1668 34.2418C14.7614 33.8364 14.052 33.8364 13.5452 34.2418C13.3425 34.4445 13.2412 34.7485 13.2412 35.0526C13.2412 35.3566 13.3425 35.6607 13.5452 35.8634C14.2547 36.5729 15.2682 36.9783 16.2817 36.9783C17.2952 36.9783 18.3087 36.5729 19.0182 35.8634C19.6263 35.2553 20.7412 35.2553 21.4506 35.8634C22.1601 36.5729 23.1736 36.9783 24.1871 36.9783C25.2006 36.9783 26.2141 36.5729 26.9236 35.8634C27.7344 35.1539 28.7479 35.1539 29.4574 35.762Z" fill="#C5AC8E"/>
</g>
</g>
<defs>
<clipPath id="clip0_326_1610">
<rect width="57" height="56" fill="white"/>
</clipPath>
<clipPath id="clip1_326_1610">
<rect width="56" height="56" fill="white" transform="translate(0.139648 0.300049)"/>
</clipPath>
</defs>
</svg>
