<svg width="57" height="57" viewBox="0 0 57 57" fill="none" xmlns="http://www.w3.org/2000/svg">
<g clip-path="url(#clip0_326_1579)">
<g clip-path="url(#clip1_326_1579)">
<path d="M40.7383 0.472046H16.7383C7.90172 0.472046 0.738281 7.63549 0.738281 16.472V40.472C0.738281 49.3086 7.90172 56.472 16.7383 56.472H40.7383C49.5748 56.472 56.7383 49.3086 56.7383 40.472V16.472C56.7383 7.63549 49.5748 0.472046 40.7383 0.472046Z" fill="white"/>
<g clip-path="url(#clip2_326_1579)">
<path d="M42.3316 28.2037C42.3316 25.9701 40.6697 24.1182 38.5177 23.8169C36.8313 17.6835 30.7411 13.8358 24.455 14.9677C23.7398 13.4797 22.2175 12.4499 20.4591 12.4499C18.016 12.4499 16.0283 14.4376 16.0283 16.8807C16.0283 17.8783 16.3599 18.7997 16.9184 19.5411C14.3564 22.8449 13.7348 27.0851 14.9161 30.8005C13.1929 31.844 12.0898 33.7428 12.0898 35.7993C12.0898 39.0181 14.7084 41.6367 17.9272 41.6367C19.9838 41.6367 21.8825 40.5337 22.9261 38.8104C24.5516 39.3272 26.2673 39.4985 27.9799 39.3144C29.234 42.0824 31.9877 43.8873 35.0876 43.8873C39.3922 43.8873 42.8942 40.3853 42.8942 36.0807C42.8942 34.2954 42.2765 32.5676 41.1708 31.1901C41.8913 30.4018 42.3316 29.3534 42.3316 28.2037ZM40.2217 28.2037C40.2217 29.4835 39.1805 30.5246 37.9008 30.5246C36.6211 30.5246 35.5799 29.4835 35.5799 28.2037C35.5799 26.924 36.6211 25.8829 37.9008 25.8829C39.1805 25.8829 40.2217 26.924 40.2217 28.2037ZM20.4591 14.5598C21.7388 14.5598 22.7799 15.6009 22.7799 16.8807C22.7799 18.1604 21.7388 19.2015 20.4591 19.2015C19.1794 19.2015 18.1382 18.1604 18.1382 16.8807C18.1382 15.6009 19.1794 14.5598 20.4591 14.5598ZM17.9272 39.5268C15.8718 39.5268 14.1997 37.8547 14.1997 35.7993C14.1997 34.5928 14.7939 33.4712 15.7435 32.7802C16.9078 34.9979 18.7286 36.8188 20.9464 37.9831C20.2553 38.9327 19.1337 39.5268 17.9272 39.5268ZM16.4503 27.0785C16.4503 24.8234 17.1911 22.6531 18.551 20.8789C21.4109 22.2493 24.7768 20.2272 24.8859 17.0337C29.9953 16.1439 34.8849 19.2263 36.3853 24.0402C34.6082 24.689 33.3705 26.4383 33.4766 28.4407C29.4967 29.2735 26.7434 33.0894 27.369 37.251C21.439 37.6641 16.4503 32.9549 16.4503 27.0785ZM35.0876 41.7774C31.9116 41.7774 29.3909 39.2139 29.3909 36.0807C29.3909 33.2845 31.4089 30.9413 34.0962 30.4713C35.1971 32.3116 37.4296 33.0876 39.4073 32.3704C40.2883 33.3977 40.7843 34.7158 40.7843 36.0807C40.7843 39.2218 38.2287 41.7774 35.0876 41.7774Z" fill="#C5AC8E"/>
<path d="M21.5848 23.7731C19.7621 23.7731 18.2793 25.256 18.2793 27.0786C18.2793 28.9013 19.7621 30.3841 21.5848 30.3841C23.4074 30.3841 24.8902 28.9013 24.8902 27.0786C24.8902 25.256 23.4074 23.7731 21.5848 23.7731ZM21.5848 28.2742C20.9255 28.2742 20.3892 27.7379 20.3892 27.0786C20.3892 26.4194 20.9255 25.883 21.5848 25.883C22.244 25.883 22.7804 26.4194 22.7804 27.0786C22.7804 27.7379 22.244 28.2742 21.5848 28.2742Z" fill="#C5AC8E"/>
<path d="M43.0345 14.7004H41.8389V13.5048C41.8389 12.9222 41.3666 12.4499 40.784 12.4499C40.2014 12.4499 39.729 12.9222 39.729 13.5048V14.7004H38.5334C37.9508 14.7004 37.4785 15.1728 37.4785 15.7554C37.4785 16.338 37.9508 16.8103 38.5334 16.8103H39.729V18.0059C39.729 18.5885 40.2014 19.0609 40.784 19.0609C41.3666 19.0609 41.8389 18.5885 41.8389 18.0059V16.8103H43.0345C43.6171 16.8103 44.0895 16.338 44.0895 15.7554C44.0895 15.1728 43.6171 14.7004 43.0345 14.7004Z" fill="#C5AC8E"/>
</g>
</g>
</g>
<defs>
<clipPath id="clip0_326_1579">
<rect width="57" height="57" fill="white"/>
</clipPath>
<clipPath id="clip1_326_1579">
<rect width="57" height="57" fill="white"/>
</clipPath>
<clipPath id="clip2_326_1579">
<rect width="32" height="32" fill="white" transform="translate(12.0898 12.4499)"/>
</clipPath>
</defs>
</svg>
