<svg width="57" height="56" viewBox="0 0 57 56" fill="none" xmlns="http://www.w3.org/2000/svg">
<g clip-path="url(#clip0_326_1599)">
<g clip-path="url(#clip1_326_1599)">
<path d="M40.7617 0.000488281H16.7617C7.92516 0.000488281 0.761719 7.16393 0.761719 16.0005V40.0005C0.761719 48.837 7.92516 56.0005 16.7617 56.0005H40.7617C49.5983 56.0005 56.7617 48.837 56.7617 40.0005V16.0005C56.7617 7.16393 49.5983 0.000488281 40.7617 0.000488281Z" fill="white"/>
<g clip-path="url(#clip2_326_1599)">
<path d="M17.6006 20.6806L18.9266 19.3546L20.2526 20.6806L19.5896 21.3436C19.2236 21.7096 19.2235 22.3035 19.5896 22.6697L21.0713 24.1513C19.374 25.7371 18.3867 27.9737 18.3867 30.3228V43.5123C18.3867 44.0301 18.8059 44.4499 19.3237 44.4499H41.827C42.3448 44.4499 42.7646 44.0301 42.7646 43.5123V39.7617C42.7646 39.2439 42.3448 38.8241 41.827 38.8241H38.4315L35.287 35.6797C35.0547 35.4473 34.7914 35.2642 34.5104 35.1303L40.5412 29.0995C40.9073 28.7334 40.9073 28.1397 40.5412 27.7735C40.175 27.4074 39.5813 27.4074 39.2152 27.7735L28.1647 38.824H24.0119V30.3228C24.0119 29.4545 24.4 28.6611 25.0547 28.1347L27.327 30.4069C27.6931 30.773 28.2868 30.7732 28.653 30.4069L29.316 29.7439L31.3051 31.7329C31.6709 32.0989 32.265 32.099 32.6311 31.7329L35.2831 29.0809C35.6493 28.7147 35.6493 28.121 35.2831 27.7548L33.294 25.7658L33.9571 25.1028C34.323 24.7369 34.3233 24.1429 33.9571 23.7768L26.2197 16.0395C25.8536 15.6733 25.2599 15.6733 24.8937 16.0395L24.2307 16.7025L22.9047 15.3765L24.2307 14.0505C24.5969 13.6844 24.5969 13.0907 24.2307 12.7245C23.8646 12.3583 23.2708 12.3583 22.9047 12.7245C22.1201 13.5091 16.9443 18.6849 16.2746 19.3546C15.9085 19.7207 15.9085 20.3144 16.2746 20.6806C16.6407 21.0467 17.2345 21.0468 17.6006 20.6806ZM20.2614 30.3228C20.2614 28.4738 21.0481 26.7139 22.3977 25.4776L23.7273 26.8073C22.7357 27.6866 22.1374 28.9675 22.1374 30.3228V38.824H20.2615L20.2614 30.3228ZM28.553 40.6993C28.8018 40.6993 29.0402 40.6005 29.216 40.4247C29.216 40.4247 32.6345 37.0062 32.6351 37.0056C33.0008 36.6401 33.5955 36.6401 33.9611 37.0056L37.3801 40.4247C37.5559 40.6005 37.7945 40.6993 38.0431 40.6993H40.8893V42.5746H20.2613V40.6993H28.553ZM33.294 28.4179L31.968 29.744L30.642 28.4179L31.968 27.0919L33.294 28.4179ZM25.5567 18.0286L31.968 24.4399L27.99 28.4179L21.5787 22.0066L25.5567 18.0286ZM21.5787 16.7025L22.9047 18.0286L21.5787 19.3546L20.2526 18.0286L21.5787 16.7025Z" fill="#C5AC8E"/>
<path d="M33.3883 40.6994C33.9062 40.6994 34.326 40.2796 34.326 39.7618C34.326 39.244 33.9062 38.8242 33.3883 38.8242C32.8705 38.8242 32.4507 39.244 32.4507 39.7618C32.4507 40.2796 32.8705 40.6994 33.3883 40.6994Z" fill="#C5AC8E"/>
</g>
</g>
</g>
<defs>
<clipPath id="clip0_326_1599">
<rect width="57" height="56" fill="white"/>
</clipPath>
<clipPath id="clip1_326_1599">
<rect width="57" height="56" fill="white"/>
</clipPath>
<clipPath id="clip2_326_1599">
<rect width="27" height="32" fill="white" transform="translate(16 12.4499)"/>
</clipPath>
</defs>
</svg>
