<svg width="57" height="56" viewBox="0 0 57 56" fill="none" xmlns="http://www.w3.org/2000/svg">
<g clip-path="url(#clip0_326_1620)">
<path d="M40.4778 0.361694H16.4778C7.64123 0.361694 0.477783 7.52514 0.477783 16.3617V40.3617C0.477783 49.1982 7.64123 56.3617 16.4778 56.3617H40.4778C49.3143 56.3617 56.4778 49.1982 56.4778 40.3617V16.3617C56.4778 7.52514 49.3143 0.361694 40.4778 0.361694Z" fill="white"/>
<path d="M13.5364 42.2564C13.5364 43.9039 14.8771 45.2447 16.5247 45.2447C18.1722 45.2447 19.513 43.9039 19.513 42.2564C19.513 40.6089 18.1722 39.2681 16.5247 39.2681C14.8771 39.2681 13.5364 40.6089 13.5364 42.2564ZM17.5208 42.2564C17.5208 42.8056 17.0739 43.2525 16.5247 43.2525C15.9755 43.2525 15.5286 42.8056 15.5286 42.2564C15.5286 41.7072 15.9755 41.2603 16.5247 41.2603C17.0739 41.2603 17.5208 41.7072 17.5208 42.2564Z" fill="#C5AC8E"/>
<path d="M18.6045 35.1965C18.5262 35.5365 18.5023 35.8918 18.5348 36.253C18.6138 37.1303 19.0262 37.9882 19.6949 38.6689C20.7222 39.7141 22.2057 40.1989 23.7145 40.096C25.275 39.9897 26.9159 39.2719 28.4997 38.0088C29.6671 38.8256 31.0457 39.2679 32.4622 39.2679C35.216 39.2679 37.6917 37.6297 38.8046 35.1314C42.5699 34.4827 45.4778 31.2387 45.4778 27.3148C45.4778 23.9433 43.291 20.9285 40.0358 19.8135C39.6354 19.6761 39.223 19.5711 38.8046 19.4988C37.6917 16.9999 35.216 15.3616 32.4622 15.3616C31.0371 15.3616 29.6499 15.8092 28.4778 16.636C27.3057 15.8092 25.9185 15.3616 24.4934 15.3616C21.7396 15.3616 19.2639 16.9999 18.151 19.4981C16.4184 19.7969 14.8253 20.6516 13.6134 21.9445C12.2362 23.4134 11.4778 25.3206 11.4778 27.3148C11.4778 31.3483 14.5757 34.7343 18.6045 35.1965ZM18.9558 21.3993C19.3456 21.3628 19.6783 21.1011 19.8051 20.7306C20.4964 18.7105 22.381 17.3538 24.4934 17.3538C25.706 17.3538 26.8841 17.814 27.8111 18.6488C28.1903 18.9901 28.7653 18.9901 29.1445 18.6488C30.0716 17.814 31.2496 17.3538 32.4622 17.3538C34.5746 17.3538 36.4592 18.7105 37.1505 20.7306C37.2773 21.1011 37.61 21.3628 37.9998 21.3993C38.4739 21.4438 38.9421 21.5441 39.3897 21.6981C41.8394 22.5375 43.4856 24.7947 43.4856 27.3148C43.4856 30.3429 41.0757 32.9414 37.9998 33.2302C37.61 33.2668 37.2773 33.5284 37.1505 33.8989C36.4592 35.919 34.5746 37.2757 32.4622 37.2757C31.2496 37.2757 30.0716 36.8155 29.1445 35.9808C28.7653 35.6395 28.1903 35.6395 27.8111 35.9808C24.8925 38.6098 22.3452 38.5235 21.1153 37.2724C20.5389 36.686 20.2209 35.7324 20.8823 35.0232C21.1412 34.7456 21.2196 34.3445 21.0848 33.9899C20.95 33.6353 20.6246 33.3876 20.2468 33.3524L18.9558 33.2309C15.8799 32.9414 13.47 30.3429 13.47 27.3148C13.47 24.2866 15.8799 21.6882 18.9558 21.3993Z" fill="#C5AC8E"/>
</g>
<defs>
<clipPath id="clip0_326_1620">
<rect width="57" height="57" fill="white" transform="translate(0.330078 -0.199951)"/>
</clipPath>
</defs>
</svg>
