<svg width="57" height="56" viewBox="0 0 57 56" fill="none" xmlns="http://www.w3.org/2000/svg">
<g clip-path="url(#clip0_326_1640)">
<path d="M40.2673 0.0853271H16.2673C7.43078 0.0853271 0.267334 7.24877 0.267334 16.0853V40.0853C0.267334 48.9219 7.43078 56.0853 16.2673 56.0853H40.2673C49.1039 56.0853 56.2673 48.9219 56.2673 40.0853V16.0853C56.2673 7.24877 49.1039 0.0853271 40.2673 0.0853271Z" fill="white"/>
<path d="M26.3228 29.873C26.3228 28.1266 24.902 26.7059 23.1557 26.7059C21.4093 26.7059 19.9885 28.1266 19.9885 29.873H21.9108C21.9108 29.1866 22.4693 28.6281 23.1557 28.6281C23.8421 28.6281 24.4005 29.1866 24.4005 29.873H26.3228Z" fill="#C5AC8E"/>
<path d="M34.1854 26.7059C32.4391 26.7059 31.0183 28.1266 31.0183 29.873H32.9406C32.9406 29.1866 33.499 28.6281 34.1854 28.6281C34.8718 28.6281 35.4303 29.1866 35.4303 29.873H37.3526C37.3526 28.1266 35.9318 26.7059 34.1854 26.7059Z" fill="#C5AC8E"/>
<path d="M28.6705 35.4975C27.4552 35.4975 26.3157 34.8458 25.6966 33.7966L24.041 34.7735C25.0042 36.4058 26.7781 37.4197 28.6704 37.4197C30.5627 37.4197 32.3366 36.4058 33.2998 34.7735L31.6443 33.7966C31.0253 34.8458 29.8857 35.4975 28.6705 35.4975Z" fill="#C5AC8E"/>
<path d="M43.8231 26.4685C43.211 25.8571 42.4422 25.4528 41.6078 25.2944C39.8057 19.7258 34.5783 15.8918 28.6706 15.8918H28.0262C26.4787 15.8918 25.2197 14.6327 25.2197 13.0853H23.2974C23.2974 14.1354 23.6419 15.1062 24.2232 15.8918H23.6142C22.0667 15.8918 20.8077 14.6327 20.8077 13.0853H18.8854C18.8854 15.1738 20.2469 16.9492 22.1285 17.5736C19.1526 19.2097 16.8201 21.9364 15.7335 25.2944C14.899 25.4528 14.1301 25.8572 13.5174 26.4692C12.7113 27.2762 12.2673 28.3484 12.2673 29.4885C12.2673 30.6146 12.7017 31.677 13.4906 32.4801C14.1071 33.1078 14.8857 33.5219 15.7335 33.6827C17.5354 39.2513 22.7628 43.0853 28.6706 43.0853C34.5783 43.0853 39.8057 39.2513 41.6077 33.6827C42.4554 33.5219 43.234 33.1078 43.8506 32.4801C44.6394 31.677 45.0738 30.6146 45.0738 29.4885C45.0738 28.3484 44.6299 27.2762 43.8231 26.4685ZM40.8504 31.8351L40.1291 31.8487L39.9408 32.5451C38.5686 37.6192 33.9341 41.163 28.6705 41.163C23.4069 41.163 18.7725 37.6192 17.4004 32.5451L17.212 31.8487L16.4907 31.8351C15.2218 31.8111 14.1895 30.7585 14.1895 29.4885C14.1895 28.8615 14.4338 28.2717 14.8765 27.8285C15.3082 27.3972 15.8815 27.1533 16.4905 27.1419L17.212 27.1284L17.4003 26.4318C18.7725 21.3579 23.407 17.8141 28.6706 17.8141C30.4078 17.8141 31.8212 19.2274 31.8212 20.9647C31.8212 22.702 30.4078 24.1154 28.6706 24.1154C26.9333 24.1154 25.5199 22.702 25.5199 20.9648H23.5977C23.5977 23.762 25.8734 26.0376 28.6706 26.0376C31.4678 26.0376 33.7434 23.762 33.7434 20.9648C33.7434 20.1687 33.5587 19.4153 33.2305 18.7441C36.4544 20.1154 38.9865 22.9034 39.9408 26.4319L40.1291 27.1284L40.8505 27.142C41.4597 27.1534 42.0329 27.3972 42.4639 27.8277C42.9074 28.2717 43.1516 28.8616 43.1516 29.4886C43.1516 30.7585 42.1192 31.8111 40.8504 31.8351Z" fill="#C5AC8E"/>
</g>
<defs>
<clipPath id="clip0_326_1640">
<rect width="57" height="57" fill="white" transform="translate(0 -0.199951)"/>
</clipPath>
</defs>
</svg>
